<svg width="420" height="100" viewBox="0 0 420 100" fill="none" xmlns="http://www.w3.org/2000/svg">
<path d="M86.4 15.6C86.4187 15.3334 86.3796 15.066 86.2855 14.8159C86.1913 14.5658 86.0442 14.339 85.8543 14.151C85.6644 13.963 85.4362 13.8183 85.1852 13.7266C84.9342 13.635 84.6664 13.5986 84.4 13.62C76.68 13.92 47.6 16.592 13.6 39.108C31.048 52.148 52.92 47.06 52.92 47.06C52.92 47.06 47.852 68.936 60.892 86.4C83.408 52.4 86.08 23.312 86.4 15.6Z" fill="url(#paint0_linear_82_3497)"/>
<g clip-path="url(#clip0_82_3497)">
<path d="M131.785 88.5H118V34.1433H121.351L125.904 39.4077C128.117 37.3781 130.647 35.7924 133.492 34.7142C136.338 33.6359 139.246 33.0651 142.345 33.0651C145.633 33.0651 148.794 33.6993 151.703 34.9679C154.612 36.2364 157.204 37.9489 159.418 40.1689C161.631 42.3888 163.338 44.9893 164.603 47.9069C165.867 50.888 166.5 53.9959 166.5 57.3575V88.4366H152.588V57.3575C152.588 55.9621 152.335 54.5667 151.766 53.2982C151.197 52.0296 150.502 50.9514 149.553 50C148.605 49.0486 147.53 48.2875 146.265 47.7801C145 47.2092 143.673 46.9555 142.281 46.9555C140.827 46.9555 139.436 47.2092 138.171 47.7801C136.907 48.3509 135.768 49.0486 134.82 50C133.871 50.9514 133.113 52.0296 132.607 53.2982C132.038 54.5667 131.785 55.8987 131.785 57.3575V88.5Z" fill="black"/>
<path d="M196.156 74.1656C196.725 74.3559 197.231 74.4193 197.8 74.4827C198.369 74.5461 198.875 74.5461 199.444 74.5461C200.772 74.5461 202.1 74.3559 203.364 73.9753C204.629 73.5947 205.767 73.0873 206.905 72.3896C207.98 71.6919 208.992 70.8674 209.814 69.8526C210.636 68.8377 211.395 67.7595 211.901 66.5544L222.018 76.7661C220.753 78.6054 219.236 80.2545 217.592 81.7133C215.948 83.1722 214.114 84.3773 212.154 85.3921C210.193 86.4069 208.17 87.168 206.02 87.6755C203.87 88.1829 201.657 88.4366 199.444 88.4366C195.65 88.4366 192.046 87.7389 188.694 86.2801C185.343 84.8847 182.434 82.855 179.905 80.318C177.376 77.7809 175.415 74.7364 173.961 71.2479C172.507 67.7595 171.811 63.8904 171.811 59.7043C171.811 55.3913 172.507 51.4588 173.961 47.9069C175.415 44.355 177.376 41.3105 179.905 38.8369C182.434 36.3633 185.343 34.397 188.694 33.0017C192.046 31.6063 195.65 30.9086 199.444 30.9086C201.72 30.9086 203.933 31.1623 206.083 31.7331C208.233 32.304 210.32 33.0651 212.217 34.0799C214.177 35.0947 215.948 36.3633 217.655 37.8221C219.362 39.2809 220.817 40.93 222.081 42.7694L196.156 74.1656ZM203.238 45.6236C202.606 45.3699 201.973 45.243 201.341 45.1796C200.709 45.1161 200.076 45.0527 199.381 45.0527C197.484 45.0527 195.713 45.3699 194.069 46.0675C192.425 46.7652 190.971 47.7801 189.706 49.0486C188.505 50.3171 187.493 51.9028 186.797 53.6788C186.102 55.5181 185.722 57.5478 185.722 59.7677C185.722 60.2751 185.722 60.846 185.786 61.4802C185.849 62.1145 185.912 62.7488 186.039 63.4465C186.165 64.0807 186.291 64.715 186.481 65.3493C186.671 65.9835 186.861 66.4909 187.113 66.9984L203.238 45.6236Z" fill="black"/>
<path d="M278.801 88.5H261.918L251.168 71.8822L240.292 88.5H223.409L243.201 60.6557L223.409 33.8896H240.292L251.168 49.4926L261.918 33.8896H278.801L258.946 60.6557L278.801 88.5Z" fill="black"/>
<path d="M297.644 88.5H283.544V11.5H297.644V88.5Z" fill="black"/>
<path d="M358.095 87.4852H354.744L349.432 80.0008C348.104 81.2059 346.713 82.2842 345.259 83.299C343.804 84.3138 342.224 85.2018 340.643 85.9629C338.999 86.724 337.355 87.2949 335.647 87.7389C333.94 88.1829 332.233 88.3731 330.462 88.3731C326.668 88.3731 323.064 87.7389 319.713 86.4703C316.361 85.2018 313.453 83.299 310.923 80.8888C308.394 78.4151 306.434 75.4341 304.979 71.8822C303.525 68.3303 302.83 64.271 302.83 59.7677C302.83 55.5181 303.525 51.6491 304.979 48.0972C306.434 44.5453 308.394 41.5008 310.923 38.9637C313.453 36.4267 316.361 34.4605 319.713 33.0651C323.064 31.6697 326.668 30.972 330.462 30.972C332.233 30.972 333.94 31.1623 335.647 31.6063C337.355 32.0502 339.062 32.6845 340.643 33.4456C342.287 34.2067 343.804 35.1581 345.259 36.173C346.713 37.2512 348.104 38.3295 349.369 39.598L354.744 33.1285H358.095V87.4852ZM344.184 59.8311C344.184 57.9283 343.804 56.089 343.109 54.313C342.413 52.5371 341.402 50.9514 340.137 49.6194C338.872 48.224 337.418 47.1458 335.774 46.3212C334.13 45.4967 332.296 45.0527 330.462 45.0527C328.565 45.0527 326.795 45.3698 325.151 46.0041C323.507 46.6384 322.052 47.5898 320.788 48.8583C319.586 50.1268 318.575 51.6491 317.879 53.4885C317.183 55.3278 316.804 57.4209 316.804 59.8311C316.804 62.1779 317.183 64.3344 317.879 66.1738C318.575 68.0132 319.586 69.5354 320.788 70.8039C321.989 72.0725 323.443 73.0239 325.151 73.6581C326.795 74.2924 328.629 74.6096 330.462 74.6096C332.359 74.6096 334.13 74.1656 335.774 73.341C337.418 72.5165 338.872 71.4382 340.137 70.0428C341.402 68.6474 342.35 67.1252 343.109 65.3493C343.868 63.5733 344.184 61.7339 344.184 59.8311Z" fill="black"/>
<path d="M420 59.8311C420 64.0807 419.304 68.0132 417.85 71.5016C416.396 74.9901 414.436 78.0346 411.906 80.5717C409.44 83.1087 406.468 85.075 403.117 86.4069C399.765 87.8023 396.161 88.5 392.304 88.5C388.51 88.5 384.906 87.8023 381.554 86.3435C378.203 84.9481 375.294 82.9184 372.765 80.3814C370.236 77.8443 368.276 74.7998 366.821 71.3114C365.367 67.8229 364.671 63.9539 364.671 59.7677V11.5H378.519V36.8707C379.278 35.9193 380.163 35.0947 381.238 34.3336C382.313 33.5725 383.451 33.0016 384.653 32.4942C385.854 32.0502 387.182 31.6697 388.447 31.416C389.775 31.1623 391.039 31.0354 392.304 31.0354C396.161 31.0354 399.765 31.7331 403.117 33.1919C406.468 34.6507 409.377 36.617 411.906 39.2175C414.372 41.818 416.396 44.799 417.85 48.3509C419.304 51.8394 420 55.645 420 59.8311ZM406.089 59.8311C406.089 57.7381 405.709 55.7718 405.014 53.9959C404.318 52.1565 403.307 50.6343 402.042 49.3023C400.777 47.9703 399.323 46.9555 397.679 46.1944C396.035 45.4333 394.201 45.0527 392.367 45.0527C390.47 45.0527 388.7 45.4967 387.056 46.3213C385.412 47.1458 383.957 48.224 382.693 49.6194C381.428 51.0148 380.479 52.5371 379.784 54.313C379.088 56.089 378.709 57.9283 378.709 59.8311C378.709 61.9242 379.088 63.8904 379.784 65.6664C380.479 67.4423 381.491 69.028 382.693 70.36C383.957 71.6919 385.412 72.7067 387.056 73.4679C388.7 74.229 390.534 74.6096 392.367 74.6096C394.264 74.6096 396.035 74.229 397.679 73.4679C399.323 72.7067 400.777 71.6919 402.042 70.36C403.307 69.028 404.255 67.5058 405.014 65.6664C405.709 63.827 406.089 61.9242 406.089 59.8311Z" fill="black"/>
</g>
<defs>
<linearGradient id="paint0_linear_82_3497" x1="3.13435" y1="49.4944" x2="75.9389" y2="49.4944" gradientUnits="userSpaceOnUse">
<stop stop-color="#FF9200"/>
<stop offset="1" stop-color="#FFD092"/>
</linearGradient>
<clipPath id="clip0_82_3497">
<rect width="302" height="77" fill="white" transform="translate(118 11.5)"/>
</clipPath>
</defs>
</svg>
